<?xml version="1.0" encoding="UTF-8"?>
<svg width="96px" height="57px" viewBox="0 0 96 57" version="1.1" xmlns="http://www.w3.org/2000/svg" xmlns:xlink="http://www.w3.org/1999/xlink">
    <!-- Generator: Sketch 45.1 (43504) - http://www.bohemiancoding.com/sketch -->
    <title>Artboard</title>
    <desc>Created with Sketch.</desc>
    <defs></defs>
    <g id="Page-1" stroke="none" stroke-width="1" fill="none" fill-rule="evenodd">
        <g id="Artboard" fill-rule="nonzero">
            <g id="Reisplanner" transform="translate(0.000000, -1.000000)">
                <g id="Modaliteit/Bus-static" transform="translate(0.000000, 13.000000)">
                    <g id="A/Modaliteit/Bus" transform="translate(0.777778, 0.125000)">
                        <g id="Group">
                            <path d="M45.5846774,40.5850232 L9.83198925,40.5850232 C8.35106441,40.5850232 7.15053763,39.3999884 7.15053763,37.9381738 L7.15053763,2.64684934 C7.15053763,1.18503481 8.35106441,2.68530972e-16 9.83198925,0 L45.5846774,0 C47.0656023,8.95103239e-17 48.266129,1.18503481 48.266129,2.64684934 L48.266129,37.9381738 C48.266129,39.3999884 47.0656023,40.5850232 45.5846774,40.5850232 Z M9.83198925,1.76456623 C9.33834764,1.76456623 8.93817204,2.15957783 8.93817204,2.64684934 L8.93817204,37.9381738 C8.93817204,38.4254454 9.33834764,38.820457 9.83198925,38.820457 L45.5846774,38.820457 C46.078319,38.820457 46.4784946,38.4254454 46.4784946,37.9381738 L46.4784946,2.64684934 C46.4784946,2.15957783 46.078319,1.76456623 45.5846774,1.76456623 L9.83198925,1.76456623 Z" id="Shape" fill="#A67C52" style="mix-blend-mode: multiply;"></path>
                            <path d="M13.4072581,28.2330596 L42.0094086,28.2330596 L42.0094086,8.82283113 L13.4072581,8.82283113 L13.4072581,28.2330596 Z M11.6196237,8.82018839 C11.6196237,7.84710492 12.415025,7.0582649 13.4069964,7.0582649 L42.0096702,7.0582649 C42.996809,7.0582649 43.797043,7.84788963 43.797043,8.82018839 L43.797043,28.2357023 C43.797043,29.2087858 43.0016417,29.9976258 42.0096702,29.9976258 L13.4069964,29.9976258 C12.4198577,29.9976258 11.6196237,29.2080011 11.6196237,28.2357023 L11.6196237,8.82018839 Z" id="Rectangle-Copy-2" fill="#A17A59"></path>
                            <path d="M3.53057796,19.4102285 L1.78763441,19.4102285 C0.800351186,19.4102285 1.20907324e-16,18.6202053 0,17.6456623 L0,12.3519636 C-1.20907324e-16,11.3774206 0.800351186,10.5873974 1.78763441,10.5873974 L3.53057796,10.5873974 C4.51786118,10.5873974 5.31821237,11.3774206 5.31821237,12.3519636 L5.31821237,17.6456623 C5.31821237,18.6202053 4.51786118,19.4102285 3.53057796,19.4102285 Z M3.53057796,12.3519636 L1.78763441,12.3519636 L1.78763441,17.6456623 L3.53057796,17.6456623 L3.53057796,12.3519636 Z" id="Shape" fill="#A67C52" style="mix-blend-mode: multiply;"></path>
                            <path d="M53.5396505,19.4102285 L51.8413978,19.4102285 C50.8541146,19.4102285 50.0537634,18.6202053 50.0537634,17.6456623 L50.0537634,12.3519636 C50.0537634,11.3774206 50.8541146,10.5873974 51.8413978,10.5873974 L53.5396505,10.5873974 C54.5269338,10.5873974 55.3272849,11.3774206 55.3272849,12.3519636 L55.3272849,17.6456623 C55.3272849,18.6202053 54.5269338,19.4102285 53.5396505,19.4102285 Z M53.5396505,12.3519636 L51.8413978,12.3519636 L51.8413978,17.6456623 L53.6290323,17.6456623 L53.5396505,12.3519636 Z" id="Shape" fill="#A67C52" style="mix-blend-mode: multiply;"></path>
                            <path d="M14.3019387,43.2318725 C14.3014932,43.2312315 14.3010753,40.5902455 14.3010753,40.5902455 C14.3010753,40.5874998 10.724943,40.5850232 10.724943,40.5850232 C10.7253885,40.5856642 10.7258065,43.2266502 10.7258065,43.2266502 C10.7258065,43.2293959 14.3019387,43.2318725 14.3019387,43.2318725 Z M8.93817204,40.5902455 C8.93817204,39.6128183 9.73072544,38.820457 10.7241094,38.820457 L14.3027723,38.820457 C15.2891183,38.820457 16.0887097,39.6026493 16.0887097,40.5902455 L16.0887097,43.2266502 C16.0887097,44.2040774 15.2961563,44.9964387 14.3027723,44.9964387 L10.7241094,44.9964387 C9.73776344,44.9964387 8.93817204,44.2142464 8.93817204,43.2266502 L8.93817204,40.5902455 Z" id="Rectangle" fill="#A17A59" style="mix-blend-mode: multiply;"></path>
                            <path d="M44.6917237,43.2318725 C44.6912782,43.2312315 44.6908602,40.5902455 44.6908602,40.5902455 C44.6908602,40.5874998 41.1147279,40.5850232 41.1147279,40.5850232 C41.1151734,40.5856642 41.1155914,43.2266502 41.1155914,43.2266502 C41.1155914,43.2293959 44.6917237,43.2318725 44.6917237,43.2318725 Z M39.327957,40.5902455 C39.327957,39.6128183 40.1205104,38.820457 41.1138944,38.820457 L44.6925573,38.820457 C45.6789032,38.820457 46.4784946,39.6026493 46.4784946,40.5902455 L46.4784946,43.2266502 C46.4784946,44.2040774 45.6859412,44.9964387 44.6925573,44.9964387 L41.1138944,44.9964387 C40.1275484,44.9964387 39.327957,44.2142464 39.327957,43.2266502 L39.327957,40.5902455 Z" id="Rectangle-Copy" fill="#A17A59" style="mix-blend-mode: multiply;"></path>
                            <path d="M8.04435484,13.2342467 L4.46908602,13.2342467 C3.97544441,13.2342467 3.57526882,12.8392351 3.57526882,12.3519636 C3.57526882,11.8646921 3.97544441,11.4696805 4.46908602,11.4696805 L8.04435484,11.4696805 C8.53799645,11.4696805 8.93817204,11.8646921 8.93817204,12.3519636 C8.93817204,12.8392351 8.53799645,13.2342467 8.04435484,13.2342467 Z" id="Shape" fill="#A67C52" style="mix-blend-mode: multiply;"></path>
                            <path d="M50.9475806,13.2342467 L47.3723118,13.2342467 C46.8786702,13.2342467 46.4784946,12.8392351 46.4784946,12.3519636 C46.4784946,11.8646921 46.8786702,11.4696805 47.3723118,11.4696805 L50.9475806,11.4696805 C51.4412223,11.4696805 51.8413978,11.8646921 51.8413978,12.3519636 C51.8413978,12.8392351 51.4412223,13.2342467 50.9475806,13.2342467 Z" id="Shape" fill="#A67C52" style="mix-blend-mode: multiply;"></path>
                            <rect id="Rectangle-2" fill="#A17A59" style="mix-blend-mode: multiply;" x="7.15053763" y="3.52913245" width="41.1155914" height="1.76456623"></rect>
                            <path d="M14.3010753,37.0558907 C12.8201504,37.0558907 11.6196237,35.8708559 11.6196237,34.4090414 C11.6196237,32.9472269 12.8201504,31.7621921 14.3010753,31.7621921 C15.7820001,31.7621921 16.9825269,32.9472269 16.9825269,34.4090414 C16.9825269,35.8708559 15.7820001,37.0558907 14.3010753,37.0558907 Z M14.3010753,35.2913245 C14.7947169,35.2913245 15.1948925,34.8963129 15.1948925,34.4090414 C15.1948925,33.9217699 14.7947169,33.5267583 14.3010753,33.5267583 C13.8074337,33.5267583 13.4072581,33.9217699 13.4072581,34.4090414 C13.4072581,34.8963129 13.8074337,35.2913245 14.3010753,35.2913245 Z" id="Oval" fill="#A17A59"></path>
                            <path d="M41.1155914,37.0558907 C39.6346666,37.0558907 38.4341398,35.8708559 38.4341398,34.4090414 C38.4341398,32.9472269 39.6346666,31.7621921 41.1155914,31.7621921 C42.5965162,31.7621921 43.797043,32.9472269 43.797043,34.4090414 C43.797043,35.8708559 42.5965162,37.0558907 41.1155914,37.0558907 Z M41.1155914,35.2913245 C41.609233,35.2913245 42.0094086,34.8963129 42.0094086,34.4090414 C42.0094086,33.9217699 41.609233,33.5267583 41.1155914,33.5267583 C40.6219498,33.5267583 40.2217742,33.9217699 40.2217742,34.4090414 C40.2217742,34.8963129 40.6219498,35.2913245 41.1155914,35.2913245 Z" id="Oval" fill="#A17A59"></path>
                        </g>
                    </g>
                </g>
                <g id="Illustration/CalendarFull" transform="translate(44.000000, 0.000000)" fill="#FEBB34">
                    <g id="Group" transform="translate(15.701131, 14.856354) rotate(-6.000000) translate(-15.701131, -14.856354) translate(1.701131, 2.356354)">
                        <path d="M0.157092144,3.92899707 C0.157092144,2.81984044 1.04599662,1.92069134 2.15731019,1.92069134 L25.8148294,1.92069134 C26.9195193,1.92069134 27.8150474,2.81668252 27.8150474,3.92899707 L27.8150474,22.7686126 C27.8150474,23.8777692 26.926143,24.7769183 25.8148294,24.7769183 L2.15731019,24.7769183 C1.05262027,24.7769183 0.157092144,23.8809271 0.157092144,22.7686126 L0.157092144,3.92899707 Z M6.14621229,8.64311103 L6.14621229,11.3320789 L8.83518016,11.3320789 L8.83518016,8.64311103 L6.14621229,8.64311103 Z M6.14621229,14.0210468 L6.14621229,16.7100147 L8.83518016,16.7100147 L8.83518016,14.0210468 L6.14621229,14.0210468 Z M6.14621229,19.3989825 L6.14621229,22.0879504 L8.83518016,22.0879504 L8.83518016,19.3989825 L6.14621229,19.3989825 Z M12.868632,8.64311103 L12.868632,11.3320789 L15.5575999,11.3320789 L15.5575999,8.64311103 L12.868632,8.64311103 Z M12.868632,19.3989825 L12.868632,22.0879504 L15.5575999,22.0879504 L15.5575999,19.3989825 L12.868632,19.3989825 Z M19.5910517,8.64311103 L19.5910517,11.3320789 L22.2800195,11.3320789 L22.2800195,8.64311103 L19.5910517,8.64311103 Z M19.5910517,14.0210468 L19.5910517,16.7100147 L22.2800195,16.7100147 L22.2800195,14.0210468 L19.5910517,14.0210468 Z M19.5910517,19.3989825 L19.5910517,22.0879504 L22.2800195,22.0879504 L22.2800195,19.3989825 L19.5910517,19.3989825 Z M11.9082863,13.0607011 L11.9082863,17.6703603 L16.5179455,17.6703603 L16.5179455,13.0607011 L11.9082863,13.0607011 Z" id="Combined-Shape" style="mix-blend-mode: multiply;"></path>
                        <rect id="Rectangle-5-Copy" style="mix-blend-mode: multiply;" x="0.157092144" y="6.10290416" width="27.6579553" height="1.03524494"></rect>
                        <rect id="Rectangle-3-Copy-4" style="mix-blend-mode: multiply;" x="7.45910508" y="-3.6708414e-11" width="1.34448394" height="4.46398365" rx="0.672241969"></rect>
                        <rect id="Rectangle-3-Copy-5" style="mix-blend-mode: multiply;" x="19.6649134" y="-3.14503978e-11" width="1.34448394" height="4.46398365" rx="0.672241969"></rect>
                    </g>
                </g>
            </g>
        </g>
    </g>
</svg>