<?xml version="1.0" encoding="UTF-8"?>
<svg width="96px" height="57px" viewBox="0 0 96 57" version="1.1" xmlns="http://www.w3.org/2000/svg" xmlns:xlink="http://www.w3.org/1999/xlink">
    <!-- Generator: Sketch 45.1 (43504) - http://www.bohemiancoding.com/sketch -->
    <title>Artboard</title>
    <desc>Created with Sketch.</desc>
    <defs></defs>
    <g id="Page-1" stroke="none" stroke-width="1" fill="none" fill-rule="evenodd">
        <g id="Artboard" fill-rule="nonzero">
            <g id="Klantenservice" transform="translate(0.000000, 9.000000)">
                <g id="Illustration/person" transform="translate(0.000000, 4.000000)">
                    <g id="Group-2" transform="translate(0.013889, 0.152778)">
                        <path d="M27.4288202,11.1241204 C27.4288202,5.2368208 23.7123749,1.76005747 18.1859576,1.76005747 C12.6595402,1.76005747 8.9430949,5.2368208 8.9430949,11.1241204 C8.9430949,17.8440984 13.4184814,24.5336641 18.1859576,24.5336641 C22.9534337,24.5336641 27.4288202,17.8440984 27.4288202,11.1241204 Z" id="Path" fill="#FFFFFF"></path>
                        <path d="M28.9276628,11.1241204 C28.9276628,18.5801778 23.9354384,26.0422848 18.1859576,26.0422848 C12.4364767,26.0422848 7.44425231,18.5801778 7.44425231,11.1241204 C7.44425231,4.37797052 11.8552621,0.251436782 18.1859576,0.251436782 C24.5166531,0.251436782 28.9276628,4.37797052 28.9276628,11.1241204 Z M27.4288202,11.1241204 C27.4288202,5.2368208 23.7123749,1.76005747 18.1859576,1.76005747 C12.6595402,1.76005747 8.9430949,5.2368208 8.9430949,11.1241204 C8.9430949,17.8440984 13.4184814,24.5336641 18.1859576,24.5336641 C22.9534337,24.5336641 27.4288202,17.8440984 27.4288202,11.1241204 Z" id="Stroke-9" fill="#A17A59" style="mix-blend-mode: multiply;"></path>
                        <path d="M11.3373352,25.3045181 C9.87672579,26.5452152 8.6677481,27.395472 7.2566411,28.0839619 C5.65351256,28.8650107 4.36928189,30.4538024 3.39006989,32.6294235 C2.86702595,33.7915267 2.46570852,35.0436645 2.17234345,36.2967167 C2.06958017,36.7356502 1.98781182,37.14267 1.92503305,37.5067812 C1.88789903,37.7221551 1.86560805,37.8730399 1.85608911,37.9485041 L1.84386444,38.0186939 C1.37082517,40.1399843 2.7074657,41.8017868 4.88346185,41.8017868 L31.2358301,41.8017868 C33.4216415,41.8017868 34.6764273,40.1686842 34.0707581,38.1010802 L34.0519765,38.0211543 C34.0383592,37.9448735 34.0080454,37.7929329 33.959623,37.5762829 C33.8778205,37.2102841 33.7750664,36.8012159 33.65001,36.3600849 C33.2929085,35.1004255 32.8302934,33.8415062 32.2534218,32.6724235 C31.1696577,30.4760769 29.8169245,28.8706609 28.1971477,28.0845518 C26.7591543,27.3871674 25.5642886,26.5120143 24.2207355,25.2735772 C23.9985664,25.06879 23.7757276,24.8577921 23.5002357,24.5927053 C23.4681485,24.5618301 23.389744,24.4861209 23.2962295,24.3958079 C21.694744,25.6127053 19.9555321,26.2689367 18.1681812,26.2689367 C16.2460116,26.2689367 14.3828769,25.5149395 12.6941141,24.1273618 C12.2192666,24.5402105 11.569631,25.1071973 11.3373352,25.3045181 Z" id="Path" fill="#FFFFFF"></path>
                        <path d="M0.448263143,37.2488286 C0.515966618,36.8561547 0.60360815,36.4198998 0.713459438,35.9506913 C1.02756455,34.609052 1.45786078,33.2664983 2.02479043,32.0068895 C3.1354899,29.5391285 4.6334439,27.685928 6.60323096,26.7262423 C7.88308625,26.101791 8.99725787,25.3182099 10.3706532,24.1515958 C10.6972788,23.8741476 11.9195446,22.8037879 12.2115429,22.5557378 L12.7135015,22.1293284 L13.1992987,22.5742974 C14.7583778,24.0023457 16.4549176,24.760316 18.1681812,24.760316 C19.7732798,24.760316 21.3669004,24.0900591 22.8558291,22.8185957 L23.3699677,22.3795496 L23.8578877,22.8479276 C23.9873375,22.9721926 24.4474328,23.4170313 24.5359709,23.5022254 C24.8043673,23.7604845 25.0199257,23.9645889 25.2330127,24.1610046 C26.4774579,25.3080877 27.5598952,26.1008951 28.8479378,26.7255579 C30.8182832,27.6818047 32.3774309,29.5321921 33.5958168,32.0013621 C34.2172642,33.2607819 34.7107941,34.6038296 35.0913255,35.9461371 C35.2244405,36.4156946 35.3341031,36.8522657 35.42192,37.2451739 C35.468483,37.4535047 35.5007453,37.6120243 35.5197344,37.7135968 C36.3835953,40.7425985 34.3970748,43.3104075 31.2358301,43.3104075 L4.88346185,43.3104075 C1.76303221,43.3104075 -0.287420431,40.7756614 0.373841576,37.7227235 C0.387443457,37.6211358 0.411736556,37.4606794 0.448263143,37.2488286 Z M11.3373352,25.3045181 C9.87672579,26.5452152 8.6677481,27.395472 7.2566411,28.0839619 C5.65351256,28.8650107 4.36928189,30.4538024 3.39006989,32.6294235 C2.86702595,33.7915267 2.46570852,35.0436645 2.17234345,36.2967167 C2.06958017,36.7356502 1.98781182,37.14267 1.92503305,37.5067812 C1.88789903,37.7221551 1.86560805,37.8730399 1.85608911,37.9485041 L1.84386444,38.0186939 C1.37082517,40.1399843 2.7074657,41.8017868 4.88346185,41.8017868 L31.2358301,41.8017868 C33.4216415,41.8017868 34.6764273,40.1686842 34.0707581,38.1010802 L34.0519765,38.0211543 C34.0383592,37.9448735 34.0080454,37.7929329 33.959623,37.5762829 C33.8778205,37.2102841 33.7750664,36.8012159 33.65001,36.3600849 C33.2929085,35.1004255 32.8302934,33.8415062 32.2534218,32.6724235 C31.1696577,30.4760769 29.8169245,28.8706609 28.1971477,28.0845518 C26.7591543,27.3871674 25.5642886,26.5120143 24.2207355,25.2735772 C23.9985664,25.06879 23.7757276,24.8577921 23.5002357,24.5927053 C23.4681485,24.5618301 23.389744,24.4861209 23.2962295,24.3958079 C21.694744,25.6127053 19.9555321,26.2689367 18.1681812,26.2689367 C16.2460116,26.2689367 14.3828769,25.5149395 12.6941141,24.1273618 C12.2192666,24.5402105 11.569631,25.1071973 11.3373352,25.3045181 Z" id="Stroke-12" fill="#A17A59" style="mix-blend-mode: multiply;"></path>
                    </g>
                </g>
                <g id="Illustration/QuestionFull" transform="translate(41.241995, 20.241995) rotate(-11.000000) translate(-41.241995, -20.241995) translate(19.741995, 4.741995)">
                    <g id="A/Icon/Questionfull" transform="translate(0.875000, 0.604167)">
                        <path d="M9.37233667,18.4797601 C10.4202584,25.7132398 17.1010084,26.2324618 24.561643,26.2324618 C32.6904791,26.2324618 41.1200227,23.7668866 39.2802027,14.5209796 C37.4403828,5.27507264 32.6904791,2.80949745 24.561643,2.80949745 C17.027748,2.80949745 10.2891292,6.51578138 9.34310021,14.4190671 C7.44921412,14.8128515 5.02938073,15.5629557 2.01311141,16.8040328 L1.89256443,16.7469964 C4.69379623,18.1779889 7.26495915,18.6067553 9.37233667,18.4797601 Z" id="Combined-Shape" fill="#FEBB34" style="mix-blend-mode: multiply;" transform="translate(20.714078, 14.520980) rotate(9.000000) translate(-20.714078, -14.520980) "></path>
                        <path d="M23.111307,16.641056 C23.111307,16.1051218 23.1765097,15.6782949 23.306917,15.3605625 C23.4373243,15.0428301 23.6760812,14.7298875 24.0231948,14.4217254 C24.3703084,14.1135632 24.6013944,13.8628263 24.7164596,13.6695072 C24.8315249,13.4761881 24.8890567,13.2723448 24.8890567,13.0579711 C24.8890567,12.411022 24.5898914,12.0875523 23.991552,12.0875523 C23.7077243,12.0875523 23.4804738,12.1746403 23.3097936,12.3488189 C23.1391135,12.5229975 23.0499392,12.7632072 23.0422682,13.0694553 L21.37383,13.0694553 C21.381501,12.338288 21.6183401,11.7659954 22.0843545,11.3525605 C22.5503689,10.9391255 23.186095,10.7324112 23.991552,10.7324112 C24.80468,10.7324112 25.4356118,10.9285984 25.8843664,11.3209788 C26.333121,11.7133592 26.5574949,12.2674685 26.5574949,12.9833235 C26.5574949,13.3087121 26.4846213,13.6159126 26.338872,13.9049343 C26.1931226,14.1939559 25.9380651,14.5145546 25.5736917,14.8667399 L25.1076796,15.3088834 C24.8161809,15.5883348 24.6493388,15.9156325 24.6071482,16.2907865 L24.5841352,16.641056 L23.111307,16.641056 Z M22.9444632,18.4038878 C22.9444632,18.147405 23.0317197,17.9359056 23.2062354,17.7693832 C23.3807511,17.6028608 23.6041661,17.5196009 23.8764873,17.5196009 C24.1488085,17.5196009 24.3722235,17.6028608 24.5467392,17.7693832 C24.7212549,17.9359056 24.8085114,18.147405 24.8085114,18.4038878 C24.8085114,18.6565425 24.7231726,18.8651709 24.5524924,19.0297793 C24.3818123,19.1943876 24.1564795,19.2766906 23.8764873,19.2766906 C23.5964951,19.2766906 23.3711623,19.1943876 23.2004821,19.0297793 C23.029802,18.8651709 22.9444632,18.6565425 22.9444632,18.4038878 Z" id="?" fill="#FFFFFF"></path>
                    </g>
                </g>
            </g>
        </g>
    </g>
</svg>