<?xml version="1.0" encoding="UTF-8"?>
<svg width="96px" height="57px" viewBox="0 0 96 57" version="1.1" xmlns="http://www.w3.org/2000/svg" xmlns:xlink="http://www.w3.org/1999/xlink">
    <!-- Generator: Sketch 45.1 (43504) - http://www.bohemiancoding.com/sketch -->
    <title>Artboard</title>
    <desc>Created with Sketch.</desc>
    <defs></defs>
    <g id="Page-1" stroke="none" stroke-width="1" fill="none" fill-rule="evenodd">
        <g id="Artboard" fill-rule="nonzero">
            <g id="Webshop">
                <g id="Illustration/TicketFull" transform="translate(59.187514, 25.132219) scale(-1, 1) rotate(-105.000000) translate(-59.187514, -25.132219) translate(37.187514, 13.132219)" fill="#FEBB34">
                    <g id="Group">
                        <path d="M31.4580633,0.07100512 C31.4599703,-0.62645558 32.0283781,-1.19138808 32.7301294,-1.19328338 L33.5405726,-1.19328338 L33.5405726,-7.7113547 C33.5405726,-9.0449784 32.4528063,-10.126094 31.1109785,-10.126094 L28.2579407,-10.126094 C28.2579407,-8.47653271 27.5986239,-6.89453313 26.4250324,-5.72811714 C25.2514409,-4.56170115 23.6597093,-3.90641546 22.0000003,-3.90641546 C18.5438352,-3.90641546 15.7420599,-6.69106041 15.7420599,-10.126094 L12.8890221,-10.126094 C11.5471943,-10.126094 10.459428,-9.0449784 10.459428,-7.7113547 L10.459428,-1.19328338 L11.273342,-1.19328338 C11.9763639,-1.19328338 12.5462758,-0.62685598 12.5462758,0.07186752 C12.5462758,0.77059112 11.9763639,1.33701842 11.273342,1.33701852 L10.459428,1.33701852 L10.459428,31.4591666 C10.459428,32.7927903 11.5471943,33.873906 12.8890221,33.873906 L15.7420599,33.873906 C15.7420599,30.4388723 18.5438352,27.6542274 22.0000003,27.6542274 C25.4561654,27.6542274 28.2579407,30.4388723 28.2579407,33.873906 L31.1109785,33.873906 C32.4528063,33.873906 33.5405726,32.7927903 33.5405726,31.4591666 L33.5405726,1.33701852 L32.7266586,1.33701852 C32.0255878,1.33322702 31.4590068,0.76779922 31.4580633,0.07100512 L31.4580633,0.07100512 Z M17.0540407,1.33529362 L15.4158001,1.33529362 C14.7127782,1.33529362 14.1428663,0.76886632 14.1428663,0.07014272 C14.1428663,-0.62858078 14.7127782,-1.19500818 15.4158001,-1.19500818 L17.0436282,-1.19500818 C17.7466501,-1.19500818 18.316562,-0.62858078 18.316562,0.07014272 C18.316562,0.76886632 17.7466501,1.33529362 17.0436282,1.33529362 L17.0540407,1.33529362 Z M22.8243269,1.33529362 L21.1860863,1.33529362 C20.4830643,1.33529362 19.9131524,0.76886632 19.9131524,0.07014272 C19.9131524,-0.62858078 20.4830643,-1.19500818 21.1860863,-1.19500818 L22.8139143,-1.19500818 C23.5169363,-1.19500818 24.0868482,-0.62858078 24.0868482,0.07014272 C24.0868482,0.76886632 23.5169363,1.33529362 22.8139143,1.33529362 L22.8243269,1.33529362 Z M28.5946131,1.33529362 L26.9563724,1.33529362 C26.2533505,1.33529362 25.6834386,0.76886632 25.6834386,0.07014272 C25.6834386,-0.62858078 26.2533505,-1.19500818 26.9563724,-1.19500818 L28.5842005,-1.19500818 C29.2872224,-1.19500818 29.8571343,-0.62858078 29.8571343,0.07014272 C29.8571343,0.76886632 29.2872224,1.33529362 28.5842005,1.33529362 L28.5946131,1.33529362 Z" id="Shape" style="mix-blend-mode: multiply;" transform="translate(22.000000, 11.873906) rotate(90.000000) translate(-22.000000, -11.873906) "></path>
                    </g>
                </g>
                <g id="Illustration/cart" style="mix-blend-mode: multiply;" transform="translate(0.000000, 18.000000)" fill="#A17A59">
                    <g id="A/L/Icon/cart" transform="translate(0.236111, 0.902778)">
                        <path d="M16.8874977,25.8592985 C16.9082426,25.9383999 17.0700722,26.047136 17.1543863,26.0354454 L44.6740768,22.219662 C44.7658223,22.2069409 44.9119347,22.0380394 44.9119347,21.9393906 L44.9119347,6.26476161 C44.9119347,6.26628355 11.7485192,6.26410035 11.7485192,6.26410035 L16.8874977,25.8592985 Z M9.75457257,6.19189262 C9.48621309,5.1686237 10.1235617,4.33910035 11.1825346,4.33910035 L44.9074613,4.33910035 C45.9644624,4.33910035 46.8213311,5.20330054 46.8213311,6.26476161 L46.8213311,21.9393906 C46.8213311,23.002904 45.9680654,23.9833627 44.934232,24.1267104 L17.4145416,27.9424937 C16.3723255,28.0870037 15.3083591,27.3687757 15.0415347,26.35136 L9.75457257,6.19189262 Z" id="Rectangle-2"></path>
                        <path d="M17.7332035,37.8448529 C15.4708862,37.8448529 13.6491165,35.9503516 13.6491165,33.6280277 C13.6491165,31.3057037 15.4708862,29.4112024 17.7332035,29.4112024 C19.9955209,29.4112024 21.8172906,31.3057037 21.8172906,33.6280277 C21.8172906,35.9503516 19.9955209,37.8448529 17.7332035,37.8448529 Z M17.7332035,35.9198529 C18.9275137,35.9198529 19.9078942,34.9003321 19.9078942,33.6280277 C19.9078942,32.3557232 18.9275137,31.3362024 17.7332035,31.3362024 C16.5388934,31.3362024 15.5585129,32.3557232 15.5585129,33.6280277 C15.5585129,34.9003321 16.5388934,35.9198529 17.7332035,35.9198529 Z" id="Oval"></path>
                        <path d="M36.5095367,37.8448529 C34.2472194,37.8448529 32.4254496,35.9503516 32.4254496,33.6280277 C32.4254496,31.3057037 34.2472194,29.4112024 36.5095367,29.4112024 C38.7718541,29.4112024 40.5936238,31.3057037 40.5936238,33.6280277 C40.5936238,35.9503516 38.7718541,37.8448529 36.5095367,37.8448529 Z M36.5095367,35.9198529 C37.7038469,35.9198529 38.6842274,34.9003321 38.6842274,33.6280277 C38.6842274,32.3557232 37.7038469,31.3362024 36.5095367,31.3362024 C35.3152266,31.3362024 34.3348461,32.3557232 34.3348461,33.6280277 C34.3348461,34.9003321 35.3152266,35.9198529 36.5095367,35.9198529 Z" id="Oval-Copy"></path>
                        <rect id="Rectangle-3" style="mix-blend-mode: multiply;" x="16.0642216" y="28.2041522" width="27.7472224" height="2.16955017" rx="1.08477508"></rect>
                        <rect id="Rectangle-3" style="mix-blend-mode: multiply;" x="0.208638658" y="0.433936518" width="10.4312962" height="2.16955017" rx="1.08477508"></rect>
                        <rect id="Rectangle-3-Copy" style="mix-blend-mode: multiply;" transform="translate(13.294681, 15.463664) rotate(75.000000) translate(-13.294681, -15.463664) " x="-1.43378145" y="14.3788887" width="29.4569244" height="2.16955017" rx="1.08477508"></rect>
                    </g>
                </g>
            </g>
        </g>
    </g>
</svg>