<?xml version="1.0" encoding="UTF-8"?>
<svg width="96px" height="57px" viewBox="0 0 96 57" version="1.1" xmlns="http://www.w3.org/2000/svg" xmlns:xlink="http://www.w3.org/1999/xlink">
    <!-- Generator: Sketch 45.1 (43504) - http://www.bohemiancoding.com/sketch -->
    <title>Artboard</title>
    <desc>Created with Sketch.</desc>
    <defs></defs>
    <g id="Page-1" stroke="none" stroke-width="1" fill="none" fill-rule="evenodd">
        <g id="Artboard" fill-rule="nonzero">
            <g id="Zakelijk" transform="translate(0.000000, 13.000000)">
                <g id="Modaliteit/Lopen-static" style="mix-blend-mode: multiply;" transform="translate(26.000000, 0.000000)" fill="#A17A59">
                    <g id="Page-1" transform="translate(0.395833, 0.270833)">
                        <path d="M20.0949174,6.61470137 C20.385011,4.47879267 19.187953,2.59901902 17.4982962,2.367927 C15.8108816,2.13643538 14.1579144,3.62435103 13.8674003,5.75959234 C13.5779347,7.89523517 14.7749226,9.77471991 16.4639873,10.0063621 C18.1520427,10.2378658 19.8055769,8.74942118 20.0949174,6.61470137 Z M21.6432311,6.82477479 C21.2449269,9.76341617 18.8582156,11.9118372 16.2516897,11.5543724 C13.6462857,11.1970615 11.9208323,8.48779155 12.3191113,5.54933703 C12.7190219,2.61004424 15.1048529,0.462442483 17.7103441,0.819882471 C20.3165401,1.17632818 22.0423183,3.88636601 21.6432311,6.82477479 Z" id="Stroke-1" style="mix-blend-mode: multiply;" transform="translate(16.981273, 6.187124) rotate(8.000000) translate(-16.981273, -6.187124) "></path>
                        <path d="M27.0863671,22.2023012 C27.3120358,22.0808583 27.5133415,21.8676338 27.6833621,21.5212766 C28.140582,20.5898519 27.7407067,20.031225 26.6286699,19.67561 C26.2730893,19.5616841 25.777234,19.4029729 25.1767824,19.2108751 C24.7253343,19.066447 24.243897,18.9124669 23.7624585,18.7585145 C23.248921,18.594307 23.248921,18.594307 23.1367354,18.5582511 C22.9546539,18.5042971 22.6905106,18.385542 22.3742514,18.1787267 C21.8805434,17.8558699 21.395762,17.4001548 20.9517149,16.792169 C20.7880212,16.5680408 20.6322718,16.3260831 20.4852771,16.0655408 C20.2676184,15.6794587 20.0465144,15.2439405 19.8010141,14.7263875 C19.6545875,14.4176973 18.9553629,12.8796974 18.7994893,12.566626 C18.7329192,12.433244 18.5397356,12.1359421 18.3535154,11.9109008 C18.2404775,11.7742979 18.1337887,11.6671703 18.0462826,11.6013182 C18.0062835,11.5712172 11.6143464,11.570236 11.6143464,11.570236 C9.94559635,11.570236 7.61943922,12.4091255 6.23746485,13.3659045 C5.3461422,13.9840661 4.61736083,14.7495374 4.29208577,15.4654401 C4.09454918,15.9003874 3.87472614,16.3961546 3.63652084,16.9428204 C3.59191537,17.045187 3.54674519,17.1491562 3.5010417,17.2546476 C3.14212322,18.0830926 2.76491217,18.9713644 2.39274807,19.8597262 C2.26246151,20.1707224 2.14212653,20.4594815 2.03464736,20.7185646 C1.97022694,20.8738528 1.92445852,20.9846163 1.91178636,21.0136167 C1.90575115,21.0302358 1.8899484,21.083162 1.87235866,21.1630225 C1.80735765,21.4581382 1.80085334,21.7683777 1.88219532,22.0328034 C1.97595688,22.3376026 2.18010825,22.5690752 2.5715385,22.7380656 C3.53337712,23.1534801 4.02154159,22.7925409 4.4962551,21.6708555 C4.65004742,21.3070793 4.85413582,20.8261349 5.0963781,20.256398 C5.3001407,19.777172 5.51382379,19.2752435 5.72750443,18.7737403 C5.84858635,18.489599 5.84858635,18.489599 5.93405978,18.2890999 C5.99816946,18.1387409 5.99816946,18.1387409 6.00942762,18.1124471 C6.16766644,17.7306665 6.46479822,17.1915691 6.91387697,16.6469304 C7.35932288,16.1066975 7.87383729,15.6758697 8.46862112,15.4018798 C9.1192675,15.1019824 9.75028645,14.9089992 10.3409226,14.802282 C10.7170023,14.7343313 11.0121833,14.7114333 11.2071618,14.7131585 C11.6666118,14.7211742 12.0168633,15.0995646 11.9810979,15.5395211 L10.8378886,29.5826545 C10.8064651,29.7958969 10.7241476,30.1482776 10.5679379,30.6082987 C10.3137182,31.3569491 9.93947011,32.1483358 9.42169873,32.9501285 C9.00498457,33.5946075 8.13961445,34.9336151 6.95879816,36.7609588 C6.3602374,37.687247 5.71944939,38.6789281 5.07868064,39.6706093 C4.39519999,40.7284034 4.39519999,40.7284034 4.22068585,40.9984453 C4.20656177,41.0198912 4.17222974,41.0812225 4.13621117,41.1648743 C4.07419052,41.3089149 4.04333614,41.4444504 4.05089671,41.5358243 C4.05658737,41.604599 4.0810138,41.6458152 4.21050172,41.6980935 L6.45949815,41.6993042 C6.49968369,41.6970201 6.58721531,41.6883723 6.70467055,41.6701974 C6.90125969,41.6397774 7.09663561,41.5942434 7.27132459,41.5330082 C7.52323695,41.4447032 7.6908601,41.3370776 7.75351774,41.2425831 C8.07594497,40.7558751 9.0105497,39.3546748 10.3684089,37.3213775 C10.970821,36.4193098 11.6124385,35.4588674 12.2540548,34.4986488 C12.6176354,33.9545462 12.6176354,33.9545462 12.8742824,33.5705134 C13.0667701,33.2824991 13.0667701,33.2824991 13.0879274,33.2527819 C13.1082942,33.2184997 13.1508898,33.1410963 13.2083778,33.026365 C13.3074226,32.8286972 13.4071398,32.6047584 13.5003064,32.3605933 C13.7121738,31.8053448 13.8565127,31.2347083 13.903458,30.6790217 C13.9421164,30.2182645 13.9918562,29.6572964 14.0504218,29.0177827 C14.0623778,28.8873934 14.0623778,28.8873934 14.0743626,28.7573155 C14.1310079,28.1432059 14.1916835,27.4998518 14.2523573,26.8661503 C14.273592,26.6443669 14.2933108,26.4396198 14.3110092,26.2567783 C14.3292194,26.0689922 14.3292194,26.0689922 14.3332858,26.0273282 C14.3652893,25.6994225 14.6077486,25.4283372 14.9352843,25.3542549 L15.326925,25.2656733 C15.6385898,25.1951807 15.9626224,25.317978 16.1447919,25.5756169 L18.9010515,29.4737454 C19.039573,29.6590169 19.1695842,29.9747044 19.27964,30.4728676 C19.4415081,31.2055576 19.53844,32.2459193 19.5456627,33.6565883 C19.5485761,34.1761204 19.5898992,35.3898182 19.6586568,37.074699 C19.6665124,37.2671979 19.6746687,37.4643955 19.6830969,37.6657338 C19.7133062,38.3873946 19.7456783,39.1310737 19.7780507,39.8549972 C19.7893812,40.1083735 19.7999019,40.3411711 19.8093427,40.5481731 C19.8162032,40.6980988 19.8182155,40.7420736 19.8195642,40.7713546 C19.8377481,40.8812792 19.8973552,41.0729756 20.0103467,41.2555872 C20.1896841,41.545424 20.4348429,41.6980196 20.8456745,41.6980196 L22.4442116,41.698026 C22.4855536,41.697861 22.6080053,41.6743254 22.7183313,41.6115909 C22.9037712,41.5061446 23.0078033,41.3182782 22.9907127,40.8855988 C22.9174433,39.0313658 22.9174433,39.0313658 22.7834302,35.6397722 C22.702165,33.5831086 22.702165,33.5831086 22.6344465,31.8692823 C22.5802719,30.4982212 22.5802719,30.4982212 22.5663774,30.1445799 C22.5640336,30.0507997 22.5359559,29.840398 22.4560652,29.5465215 C22.3173569,29.036286 22.0755351,28.5043381 21.704934,27.980193 C21.333327,27.4552708 20.5166889,26.3006499 19.3883983,24.7050266 C18.8333314,23.9200534 18.2394439,23.080116 17.645587,22.2401791 C17.0121505,21.3442475 17.0121505,21.3442475 16.8537956,21.1202598 C16.7626535,20.9913423 16.7141143,20.8381049 16.714743,20.6812732 L16.725993,17.8750353 C16.7291547,17.0863685 17.8001215,16.8170365 18.1904544,17.5067454 C18.2028554,17.5286577 18.2355859,17.5824034 18.288896,17.6633987 C18.3826672,17.8058676 18.4975978,17.9666196 18.6338936,18.1410924 C19.0277132,18.6452228 19.5101054,19.1512017 20.082227,19.6233735 C21.0821096,20.4485763 22.2452237,21.0789714 23.6137232,21.4499281 L26.2790036,22.3024619 C26.5685638,22.3560802 26.8418145,22.3339064 27.0863671,22.2023012 Z M15.6305185,28.8951521 C15.6185772,29.0247583 15.6185772,29.0247583 15.6066678,29.154639 C15.5484212,29.7906695 15.4989971,30.348077 15.4606672,30.8049171 C15.4007135,31.5145849 15.222625,32.2186491 14.9638418,32.8968513 C14.7710632,33.4020731 14.5762447,33.7908804 14.4166395,34.0574255 C14.3738785,34.1214016 14.3738785,34.1214016 14.1814173,34.4093763 C13.9247993,34.7933657 13.9247993,34.7933657 13.5612544,35.3374149 C12.9197079,36.297529 12.2781627,37.2578631 11.6793956,38.1544728 C10.3195054,40.1908114 9.38495214,41.5919345 9.0639005,42.0765659 C8.78238738,42.5011186 8.34206788,42.783834 7.79759842,42.9746914 C7.32780123,43.1393734 6.87532075,43.2093898 6.50473698,43.2291667 L4.07333073,43.2291667 C3.98974806,43.2291667 3.90670692,43.2160231 3.82737442,43.1902373 C3.01518918,42.9262488 2.55200995,42.3665998 2.49350781,41.6595681 C2.46250538,41.284886 2.54536388,40.9209097 2.69661192,40.5696418 C2.77148586,40.3957499 2.84804634,40.258981 2.90419995,40.1737709 C3.07506922,39.9093162 3.07506922,39.9093162 3.75855839,38.851509 C4.39933596,37.859814 5.0401331,36.8681189 5.63823866,35.9425351 C6.81960626,34.1143382 7.68501554,32.7752701 8.10159693,32.1309966 C8.54875385,31.4385534 8.86980852,30.7596497 9.08536414,30.1248611 C9.15949679,29.9065483 9.21503559,29.7107973 9.25457013,29.5415597 C9.27630523,29.4485171 9.2876996,29.3884626 9.28599245,29.4110112 L10.3464845,16.3657102 C9.96268349,16.4556171 9.55524098,16.5930982 9.13350719,16.7874847 C8.77573826,16.9522926 8.43707994,17.2358676 8.12922779,17.609228 C7.93230685,17.8480519 7.76096225,18.1074618 7.61807377,18.3667098 C7.53387333,18.5194778 7.47986309,18.6336506 7.45407306,18.6957702 C7.43985418,18.7291066 7.43985418,18.7291066 7.37579682,18.8793429 C7.29038085,19.0797072 7.29038085,19.0797072 7.16936946,19.363683 C6.95582662,19.8648628 6.74228622,20.3664561 6.54299824,20.8351583 C6.2968215,21.4141486 6.09309382,21.894243 5.93966925,22.2571491 C5.17394369,24.0664578 3.91989122,24.9936796 1.94147742,24.1392101 C1.12610358,23.7871926 0.609875052,23.2018779 0.386187988,22.4747182 C0.217258935,21.9255653 0.228971468,21.3669064 0.345029298,20.839984 C0.377733528,20.6915012 0.412224743,20.5759839 0.451261652,20.4704684 C0.475964286,20.4104782 0.522235121,20.2984989 0.587179673,20.1419473 C0.69530878,19.8812974 0.816315915,19.5909254 0.947309359,19.2782419 C1.32165956,18.3846618 1.70116306,17.4909916 2.06279186,16.6562908 C2.10891151,16.5498388 2.15450421,16.4448971 2.19953966,16.3415437 C2.44064137,15.7882308 2.66352397,15.2855634 2.86462619,14.8427651 C3.320871,13.8386091 4.23387491,12.8796408 5.33534457,12.1157356 C6.96478289,10.9876301 9.59499313,10.039089 11.6143464,10.039089 L18.0655182,10.039089 C18.966042,10.039089 19.7505321,10.9871211 20.2034371,11.8945767 C20.3739698,12.23709 21.0817972,13.7940123 21.217921,14.0809827 C21.4493901,14.5689557 21.6553079,14.9745612 21.8528264,15.3249186 C21.9705146,15.5335162 22.0939553,15.7252822 22.2223216,15.9010403 C22.5552062,16.3568233 22.9028515,16.6836247 23.2415702,16.9051273 C23.35235,16.9775709 23.4515333,17.0315172 23.5360309,17.069506 C23.7335866,17.1386824 23.7335866,17.1386824 24.2471836,17.3029089 C24.7286838,17.456881 25.2101851,17.6108816 25.6595937,17.7546573 C26.2623576,17.9474949 26.7583983,18.1062654 27.113826,18.2201423 C29.0141303,18.827835 30.0375663,20.2575776 29.0914243,22.185009 C28.782954,22.8134088 28.3555202,23.2661497 27.8384885,23.5443887 C27.2338213,23.8697885 26.606634,23.9206836 26.0374426,23.8164878 C25.9356689,23.7978572 25.8551681,23.7773546 25.796532,23.7587847 L23.1634556,22.9156951 C21.6009811,22.4931267 20.240289,21.7556464 19.0756993,20.7945108 C18.7913447,20.5598331 18.5261331,20.3179863 18.279698,20.0718974 L18.2781968,20.4463513 C18.3720784,20.5791402 18.5152887,20.7816967 18.9299432,21.3681833 C19.5237837,22.2080971 20.1176542,23.0480105 20.6719738,23.8319268 C21.8008086,25.4283198 22.617377,26.582842 22.9890148,27.1078079 C23.4671811,27.7840835 23.7824979,28.477702 23.9659088,29.1523753 C24.0792895,29.5694442 24.1231943,29.8984475 24.1280582,30.0962143 C24.1416019,30.4389795 24.1416019,30.4389795 24.1957766,31.8100405 C24.263495,33.5238667 24.263495,33.5238667 24.3447574,35.5804581 C24.4787733,38.9721235 24.4787733,38.9721235 24.552043,40.8263645 C24.5913774,41.8221881 24.1916166,42.5440968 23.5025405,42.9359247 C23.1155845,43.1559587 22.7407542,43.2280023 22.4473932,43.2291667 L20.8456745,43.2291667 C19.8543869,43.2291667 19.1222459,42.7734557 18.674264,42.0494483 C18.4191666,41.6371717 18.3028537,41.2353641 18.2652833,40.9344015 C18.2581343,40.8292448 18.2581343,40.8292448 18.2484009,40.6165353 C18.2389405,40.4091036 18.2283998,40.1758645 18.2170487,39.9220289 C18.1846169,39.1967758 18.1521846,38.4517131 18.1219099,37.7284899 C18.1134602,37.5266393 18.1052822,37.328918 18.0974046,37.1358802 C18.0277959,35.4301431 17.9862403,34.2096166 17.9831843,33.6646363 C17.9764666,32.3526179 17.8891258,31.4151964 17.7525168,30.7968407 C17.7079623,30.5951664 17.6638454,30.4540457 17.6256677,30.3657151 C17.6180479,30.3480854 15.7426985,27.6953812 15.7426985,27.6953812 C15.7043556,28.1005485 15.66661,28.5038729 15.6305185,28.8951521 Z" id="Stroke-3" style="mix-blend-mode: multiply;"></path>
                    </g>
                </g>
                <g id="Illustration/KofferFull_small" transform="translate(0.000000, 4.000000)" fill="#FEBB34">
                    <path d="M13.0137065,5.52065345 L13.0137065,3.85219149 C13.0137065,2.7487061 13.9105384,1.85415445 15.0121142,1.85415445 L20.5481963,1.85415445 C21.6518864,1.85415445 22.546604,2.74421911 22.546604,3.85219149 L22.546604,5.52065345 L31.2781805,5.52065345 C32.9357087,5.52065345 34.2794008,6.8636733 34.2794008,8.52190312 L34.2794008,24.5183978 C34.2794008,26.1759422 32.9449509,27.5196475 31.2781805,27.5196475 L4.28212998,27.5196475 C2.6246018,27.5196475 1.28090972,26.1766276 1.28090972,24.5183978 L1.28090972,8.52190312 C1.28090972,6.86435871 2.61535962,5.52065345 4.28212998,5.52065345 L13.0137065,5.52065345 Z M14.4803061,4.2373788 L14.4803061,5.52065345 L21.0800044,5.52065345 L21.0800044,4.2373788 C21.0800044,3.52370462 20.5032776,2.95410415 19.791849,2.95410415 L15.7684615,2.95410415 C15.0544409,2.95410415 14.4803061,3.52864578 14.4803061,4.2373788 Z" id="A/Icon/Kofferfull" style="mix-blend-mode: multiply;" transform="translate(17.780155, 14.686901) rotate(4.000000) translate(-17.780155, -14.686901) "></path>
                </g>
            </g>
        </g>
    </g>
</svg>